<svg xmlns="http://www.w3.org/2000/svg" width="106" height="17" viewBox="0 0 106 17">
  <defs>
    <style>
      .cls-1{fill:#abbcb8;}.cls-2{fill:#fff;}
    </style>
  </defs>
  <rect width="106" height="17" class="cls-1" rx="2" ry="2"/>
  <path d="M14.5 4.82h1.56l-2.48 7.3H11.9l-2.48-7.3H11l1.37 4.35q.11.38.24.9t.15.71a12.83 12.83 0 0 1 .37-1.61zM21.19 12.12H17v-7.3h4.21v1.27h-2.68v1.6H21V9h-2.47v1.88h2.66zM28.7 12.12h-1.54V9h-2.9v3.15h-1.54V4.82h1.55v2.86h2.89V4.82h1.54zM30.54 12.12v-7.3h1.55v7.3zM37 6a1.58 1.58 0 0 0-1.35.66 3.06 3.06 0 0 0-.48 1.83q0 2.44 1.83 2.44a5.8 5.8 0 0 0 1.86-.38v1.3a5.17 5.17 0 0 1-2 .38 3.06 3.06 0 0 1-2.44-1 4.09 4.09 0 0 1-.84-2.78 4.53 4.53 0 0 1 .41-2 3 3 0 0 1 1.19-1.31A3.52 3.52 0 0 1 37 4.71a4.91 4.91 0 0 1 2.14.51l-.5 1.26a8.29 8.29 0 0 0-.82-.34A2.47 2.47 0 0 0 37 6zM40.45 12.12v-7.3H42v6h3v1.28zM50.44 12.12h-4.21v-7.3h4.21v1.27h-2.66v1.6h2.47V9h-2.47v1.88h2.66zM58.93 10.09a1.89 1.89 0 0 1-.71 1.56 3.09 3.09 0 0 1-2 .57 4.65 4.65 0 0 1-2.07-.44v-1.44a8.55 8.55 0 0 0 1.25.46 3.71 3.71 0 0 0 .94.13 1.33 1.33 0 0 0 .78-.19.67.67 0 0 0 .27-.58.64.64 0 0 0-.12-.38 1.33 1.33 0 0 0-.35-.32A9 9 0 0 0 56 9a4.47 4.47 0 0 1-1-.6 2.27 2.27 0 0 1-.54-.67 1.93 1.93 0 0 1-.2-.9 1.89 1.89 0 0 1 .66-1.52 2.73 2.73 0 0 1 1.82-.55 4.29 4.29 0 0 1 1.09.13 7.51 7.51 0 0 1 1.08.38l-.5 1.2a7.3 7.3 0 0 0-1-.33 3.13 3.13 0 0 0-.73-.14 1 1 0 0 0-.67.2.68.68 0 0 0-.23.53.66.66 0 0 0 .09.36 1 1 0 0 0 .3.29 9.19 9.19 0 0 0 1 .51 3.91 3.91 0 0 1 1.4 1 1.92 1.92 0 0 1 .36 1.2zM65.3 7.09a2.23 2.23 0 0 1-.74 1.8 3.15 3.15 0 0 1-2.1.62h-.66v2.6h-1.55V4.82h2.33a3.11 3.11 0 0 1 2 .57 2.09 2.09 0 0 1 .72 1.7zm-3.5 1.16h.51A1.7 1.7 0 0 0 63.38 8a1 1 0 0 0 .35-.82 1 1 0 0 0-.3-.8 1.39 1.39 0 0 0-.93-.26h-.7zM70.88 12.12h-4.2v-7.3h4.21v1.27h-2.66v1.6h2.47V9h-2.47v1.88h2.66zM75.51 6a1.58 1.58 0 0 0-1.35.66 3.05 3.05 0 0 0-.48 1.83q0 2.44 1.83 2.44a5.8 5.8 0 0 0 1.86-.38v1.3a5.17 5.17 0 0 1-2 .38 3.06 3.06 0 0 1-2.44-1 4.1 4.1 0 0 1-.84-2.78 4.53 4.53 0 0 1 .41-2 3 3 0 0 1 1.19-1.31 3.53 3.53 0 0 1 1.82-.46 4.92 4.92 0 0 1 2.14.51l-.5 1.26a8.33 8.33 0 0 0-.82-.34 2.47 2.47 0 0 0-.82-.11zM78.93 12.12v-7.3h1.55v7.3zM83.84 12.12h-1.53v-7.3h4.19v1.27h-2.66V8h2.48v1.23h-2.48zM87.93 12.12v-7.3h1.55v7.3zM94.42 6a1.58 1.58 0 0 0-1.35.66 3.05 3.05 0 0 0-.48 1.83q0 2.44 1.83 2.44a5.8 5.8 0 0 0 1.86-.38v1.3a5.17 5.17 0 0 1-2 .38 3.06 3.06 0 0 1-2.44-1A4.1 4.1 0 0 1 91 8.48a4.53 4.53 0 0 1 .41-2 3 3 0 0 1 1.19-1.31 3.53 3.53 0 0 1 1.82-.46 4.92 4.92 0 0 1 2.14.51l-.5 1.26a8.33 8.33 0 0 0-.82-.34 2.47 2.47 0 0 0-.82-.14z" class="cls-2"/>
</svg>
